<svg width="20" height="20" viewBox="0 0 20 20" fill="none" xmlns="http://www.w3.org/2000/svg">
<path fill-rule="evenodd" clip-rule="evenodd" d="M5.83342 2.70834C6.1786 2.70834 6.45842 2.98817 6.45842 3.33334V4.72303C8.81487 4.51318 11.1853 4.51318 13.5418 4.72304V3.33334C13.5418 2.98817 13.8216 2.70834 14.1668 2.70834C14.5119 2.70834 14.7918 2.98817 14.7918 3.33334V4.84704C16.036 5.02296 17.0189 6.00707 17.1853 7.26237L17.2574 7.8065C17.5608 10.0951 17.5346 12.4154 17.1796 14.6966C17.0038 15.8266 16.0857 16.6946 14.9476 16.8068L13.9534 16.9048C11.3242 17.1641 8.6759 17.1641 6.0467 16.9048L5.05253 16.8068C3.91441 16.6946 2.99636 15.8266 2.82052 14.6966C2.46555 12.4154 2.43935 10.0951 2.74272 7.8065L2.81484 7.26237C2.98124 6.00705 3.9642 5.02294 5.20842 4.84703V3.33334C5.20842 2.98817 5.48825 2.70834 5.83342 2.70834ZM6.2044 6.00235C8.72872 5.75341 11.2714 5.75341 13.7957 6.00235L14.5503 6.07676C15.2726 6.14799 15.8508 6.70713 15.9461 7.42663L16.0183 7.97075C16.0435 8.16085 16.0663 8.35117 16.0867 8.54168H3.91348C3.93388 8.35117 3.95668 8.16085 3.98188 7.97076L4.054 7.42663C4.14937 6.70713 4.72756 6.14799 5.44985 6.07676L6.2044 6.00235ZM3.81412 9.79168C3.7323 11.3651 3.81291 12.9444 4.05565 14.5044C4.14385 15.0712 4.60434 15.5065 5.1752 15.5628L6.16937 15.6609C8.71699 15.9121 11.2831 15.9121 13.8308 15.6609L14.8249 15.5628C15.3958 15.5065 15.8563 15.0712 15.9445 14.5044C16.1872 12.9444 16.2678 11.3651 16.186 9.79168H3.81412Z" fill="#855B28"/>
</svg>
