<svg width="20" height="20" viewBox="0 0 20 20" fill="none" xmlns="http://www.w3.org/2000/svg">
<path fill-rule="evenodd" clip-rule="evenodd" d="M8.73868 3.42847C9.30069 2.45992 10.6994 2.45992 11.2614 3.42847L12.9825 6.39461C13.1412 6.66801 13.4154 6.85459 13.7279 6.90179L16.586 7.33347C17.8318 7.52163 18.2688 9.09461 17.2986 9.89844L15.2162 11.6237C14.9239 11.8659 14.7864 12.2478 14.8574 12.6207L15.4408 15.684C15.6693 16.884 14.4096 17.8163 13.3287 17.2472L10.4854 15.75C10.1816 15.5901 9.8185 15.5901 9.51473 15.75L6.67136 17.2472C5.59052 17.8163 4.33083 16.884 4.55933 15.684L5.14265 12.6207C5.21365 12.2478 5.07622 11.8659 4.78393 11.6237L2.70151 9.89844C1.73128 9.09461 2.16828 7.52163 3.41411 7.33347L6.27215 6.90179C6.5847 6.85459 6.85891 6.66801 7.01755 6.39461L8.73868 3.42847ZM10.1802 4.05583C10.0999 3.91747 9.90013 3.91747 9.81985 4.05583L8.09872 7.02196C7.7497 7.62345 7.14644 8.03392 6.45883 8.13777L3.60079 8.56945C3.42281 8.59633 3.36039 8.82104 3.49899 8.93587L5.58141 10.6611C6.22443 11.1939 6.52679 12.0342 6.37058 12.8545L5.78727 15.9178C5.75462 16.0892 5.93458 16.2224 6.08899 16.1411L8.93235 14.644C9.60065 14.2921 10.3994 14.2921 11.0677 14.644L13.9111 16.1411C14.0655 16.2224 14.2455 16.0892 14.2128 15.9178L13.6295 12.8545C13.4733 12.0342 13.7756 11.1939 14.4187 10.6611L16.5011 8.93587C16.6397 8.82104 16.5773 8.59633 16.3993 8.56945L13.5413 8.13778C12.8536 8.03392 12.2504 7.62345 11.9014 7.02197L10.1802 4.05583Z" fill="#855B28"/>
</svg>
