<svg width="24" height="24" viewBox="0 0 24 24" fill="none" xmlns="http://www.w3.org/2000/svg">
<path fill-rule="evenodd" clip-rule="evenodd" d="M5 11C5 7.691 7.691 5 11 5C14.309 5 17 7.691 17 11C17 14.309 14.309 17 11 17C7.691 17 5 14.309 5 11ZM20.707 19.293L17.312 15.897C18.365 14.543 19 12.846 19 11C19 6.589 15.411 3 11 3C6.589 3 3 6.589 3 11C3 15.411 6.589 19 11 19C12.846 19 14.543 18.365 15.897 17.312L19.293 20.707C19.488 20.902 19.744 21 20 21C20.256 21 20.512 20.902 20.707 20.707C21.098 20.316 21.098 19.684 20.707 19.293Z" fill="url(#paint0_linear_2552_26552)"/>
<mask id="mask0_2552_26552" style="mask-type:luminance" maskUnits="userSpaceOnUse" x="3" y="3" width="19" height="18">
<path fill-rule="evenodd" clip-rule="evenodd" d="M5 11C5 7.691 7.691 5 11 5C14.309 5 17 7.691 17 11C17 14.309 14.309 17 11 17C7.691 17 5 14.309 5 11ZM20.707 19.293L17.312 15.897C18.365 14.543 19 12.846 19 11C19 6.589 15.411 3 11 3C6.589 3 3 6.589 3 11C3 15.411 6.589 19 11 19C12.846 19 14.543 18.365 15.897 17.312L19.293 20.707C19.488 20.902 19.744 21 20 21C20.256 21 20.512 20.902 20.707 20.707C21.098 20.316 21.098 19.684 20.707 19.293Z" fill="white"/>
</mask>
<g mask="url(#mask0_2552_26552)">
<rect width="24" height="24" fill="url(#paint1_linear_2552_26552)"/>
</g>
<defs>
<linearGradient id="paint0_linear_2552_26552" x1="3" y1="11.9659" x2="21.015" y2="11.9659" gradientUnits="userSpaceOnUse">
<stop stop-color="#006B68"/>
<stop offset="1" stop-color="#00978C"/>
</linearGradient>
<linearGradient id="paint1_linear_2552_26552" x1="0" y1="11.9545" x2="24.0197" y2="11.9545" gradientUnits="userSpaceOnUse">
<stop stop-color="#006B68"/>
<stop offset="1" stop-color="#00978C"/>
</linearGradient>
</defs>
</svg>
