<svg width="67" height="84" viewBox="0 0 67 84" fill="none" xmlns="http://www.w3.org/2000/svg">
<path d="M41.625 2.09497V18.8753C41.625 21.1505 41.625 22.2881 42.0678 23.1571C42.4573 23.9215 43.0788 24.543 43.8432 24.9325C44.7122 25.3753 45.8498 25.3753 48.125 25.3753H64.9053M49.75 45.6875H17.25M49.75 61.9375H17.25M25.375 29.4375H17.25M41.625 1H20.5C13.6744 1 10.2615 1 7.65449 2.32836C5.36127 3.49681 3.49681 5.36127 2.32836 7.65449C1 10.2615 1 13.6744 1 20.5V62.75C1 69.5756 1 72.9885 2.32836 75.5955C3.49681 77.8887 5.36127 79.7532 7.65449 80.9216C10.2615 82.25 13.6744 82.25 20.5 82.25H46.5C53.3256 82.25 56.7385 82.25 59.3455 80.9216C61.6387 79.7532 63.5032 77.8887 64.6716 75.5955C66 72.9885 66 69.5756 66 62.75V25.375L41.625 1Z" stroke="#855B28" stroke-width="2" stroke-linecap="round" stroke-linejoin="round"/>
</svg>
