<svg width="20" height="20" viewBox="0 0 20 20" fill="none" xmlns="http://www.w3.org/2000/svg">
<path d="M12.9166 4.16669C14.087 4.16669 14.6722 4.16669 15.0926 4.44757C15.2746 4.56917 15.4308 4.72542 15.5524 4.9074C15.8333 5.32778 15.8333 5.91297 15.8333 7.08335V15C15.8333 16.5714 15.8333 17.357 15.3451 17.8452C14.857 18.3334 14.0713 18.3334 12.5 18.3334H7.49996C5.92861 18.3334 5.14294 18.3334 4.65478 17.8452C4.16663 17.357 4.16663 16.5714 4.16663 15V7.08335C4.16663 5.91297 4.16663 5.32778 4.44751 4.9074C4.56911 4.72542 4.72536 4.56917 4.90734 4.44757C5.32771 4.16669 5.91291 4.16669 7.08329 4.16669" stroke="#C3A87B" stroke-width="2"/>
<path d="M7.5 4.16667C7.5 3.24619 8.24619 2.5 9.16667 2.5H10.8333C11.7538 2.5 12.5 3.24619 12.5 4.16667C12.5 5.08714 11.7538 5.83333 10.8333 5.83333H9.16667C8.24619 5.83333 7.5 5.08714 7.5 4.16667Z" stroke="#C3A87B" stroke-width="2"/>
<path d="M7.5 10L12.5 10" stroke="#C3A87B" stroke-width="2" stroke-linecap="round"/>
<path d="M7.5 13.3333L10.8333 13.3333" stroke="#C3A87B" stroke-width="2" stroke-linecap="round"/>
</svg>
